# xmcd CD database file
#
# Track frame offsets:
#	150
#	45874
#	80356
#	130355
#	151455
#	186143
#	223930
#
# Disc length: 3464 seconds
#
# Revision: 0
# Processed by: cddbd v1.5.2PL0 Copyright (c) Steve Scherf et al.
# Submitted via: CDex 1.51
#
DISCID=590d8607
DTITLE=Conrad Herwig Sextet - Land Of Shadow
DYEAR=2002
DGENRE=Jazz
TTITLE0=Lullaby Of The Leaves
TTITLE1=The Dream Master
TTITLE2=Land Of Shadow
TTITLE3=Forbidden Pool
TTITLE4=Shadows Of The Past
TTITLE5=Gypsy Without A Song
TTITLE6=Homeward Bound
EXTD=YEAR: 2002
EXTT0=
EXTT1=
EXTT2=
EXTT3=
EXTT4=
EXTT5=
EXTT6=
PLAYORDER=
